<svg width="84" height="25" viewBox="0 0 84 25" fill="none" xmlns="http://www.w3.org/2000/svg">
<rect width="84" height="25" fill="#1E1E1E"/>
<rect width="84" height="25" rx="2" fill="#3682F3"/>
<path d="M9.12 4.76C9.66667 4.13333 10.2533 3.82 10.88 3.82C11.5067 3.82 11.88 4.3 12 5.26V5.32C12 5.8 11.7267 6.84667 11.18 8.46L12.12 8.26C13.2667 8.26 13.9333 8.99333 14.12 10.46V10.76C14.12 12.52 13.0133 14.1267 10.8 15.58C10.08 15.86 9.56 16 9.24 16C8.16 16 7.41333 15.3733 7 14.12C7.02667 13.9733 7.19333 13.7667 7.5 13.5C7.64667 7.47333 7.77333 4.46 7.88 4.46C8.10667 4.23333 8.31333 4.12 8.5 4.12C8.86 4.25333 9.04 4.46667 9.04 4.76H9.12ZM8.92 10.26H9C10.0933 8.19333 10.6733 6.59333 10.74 5.46V5H10.54C10.26 5 9.88667 5.75333 9.42 7.26C9.08667 8.68667 8.92 9.68667 8.92 10.26ZM9.68 11.5L9.38 11.62L8.88 11.58V11.62L8.8 11.88V13.96L8.74 14.7L9.18 14.82C10.3133 14.82 11.4333 13.9667 12.54 12.26C12.8467 11.5 13 10.8733 13 10.38C13 9.76667 12.7067 9.46 12.12 9.46H12.04C11.4 9.46 10.6133 10.14 9.68 11.5ZM17.5591 8.12C18.3991 8.12 18.8991 8.70667 19.0591 9.88V10.06C19.0591 11.3533 18.3924 12.54 17.0591 13.62C17.8324 14.38 19.1857 14.76 21.1191 14.76C21.4124 14.8533 21.5591 15.06 21.5591 15.38C21.5591 15.74 21.3257 15.92 20.8591 15.92C19.5524 15.92 18.1791 15.5867 16.7391 14.92V15.5C16.7391 16.8733 16.4457 17.56 15.8591 17.56C15.4457 17.56 15.2391 16.7667 15.2391 15.18V13.62L15.1791 13.06L15.3191 12.42L15.1791 10.5V10.42C15.1791 10.06 15.3657 9.81333 15.7391 9.68C16.2591 8.64 16.8657 8.12 17.5591 8.12ZM16.5591 12.5C16.9457 12.5 17.3791 11.8067 17.8591 10.42V9.56L17.6191 9.3H17.4391C16.8524 9.7 16.5591 10.7667 16.5591 12.5ZM25.9638 8.28C26.5504 8.28 26.8438 8.51333 26.8438 8.98L26.6638 9.36L26.5438 13.02C26.5438 14.6733 26.8771 15.7 27.5438 16.1L27.5838 16.4C27.5438 16.7867 27.3638 16.98 27.0438 16.98H26.9238C25.9238 16.3 25.4238 15.26 25.4238 13.86H25.2838C24.7504 15.3533 24.1038 16.1 23.3438 16.1C22.6371 15.9 22.2838 15.3733 22.2838 14.52C22.2838 12.64 23.0371 10.7667 24.5438 8.9C25.0504 8.48667 25.5238 8.28 25.9638 8.28ZM23.5438 13.72L23.4638 14.28V14.66H23.6638C24.6638 12.1667 25.1638 10.6467 25.1638 10.1H25.0838C24.3104 10.9667 23.7971 12.1733 23.5438 13.72ZM28.7036 10C29.1703 10 29.4903 11.0267 29.6636 13.08C29.8903 14.0267 30.0569 14.5 30.1636 14.5H30.2836C30.6169 13.66 30.7836 12.8267 30.7836 12L30.6636 10.62C30.8103 10.26 31.0169 10.08 31.2836 10.08C31.7769 10.08 32.0236 10.9533 32.0236 12.7C32.3169 14.5133 32.4636 16.2 32.4636 17.76V18.7C32.4636 21.5667 31.6503 23.5 30.0236 24.5L29.5836 24.58C28.8236 24.58 28.1169 23.8733 27.4636 22.46L27.2836 21.26V21.2C27.2836 20.32 27.5303 19.88 28.0236 19.88L28.5236 20.2L28.4636 21.46C28.4636 22.0733 28.7769 22.6933 29.4036 23.32H29.6636C30.3969 23.32 30.9369 21.92 31.2836 19.12L31.3236 17.96C31.3103 16.6133 31.2569 15.7533 31.1636 15.38C30.6303 15.8467 30.2103 16.08 29.9036 16.08C29.2236 16.08 28.6169 14.26 28.0836 10.62L28.0236 10.58C28.0236 10.2733 28.2503 10.08 28.7036 10ZM35.1566 8.82C35.6899 8.83333 36.5899 9.76667 37.8566 11.62L37.8966 11.96C37.8966 12.3333 36.9832 12.62 35.1566 12.82L35.0966 12.88V12.96C35.3766 14.16 35.6699 14.76 35.9766 14.76H36.2166C36.6432 14.76 37.2899 14.3 38.1566 13.38H38.2766C38.5432 13.38 38.7499 13.5733 38.8966 13.96C38.8966 14.28 38.3366 14.8333 37.2166 15.62C36.9232 15.7933 36.5699 15.92 36.1566 16C35.0766 16 34.3232 14.9867 33.8966 12.96C33.2832 12.8667 32.9766 12.6133 32.9766 12.2C32.9766 11.9067 33.2032 11.7133 33.6566 11.62V11.7L33.8566 11.62V11.12C33.8566 9.58667 34.2899 8.82 35.1566 8.82ZM35.2766 10.26H35.0966L35.0166 11V11.62H35.0966C35.8432 11.5933 36.2166 11.5133 36.2166 11.38C35.8699 10.86 35.5566 10.4867 35.2766 10.26ZM42.2652 9.26C43.3985 9.35333 43.9652 9.90667 43.9652 10.92L44.0052 11.18L43.9652 14.3C43.9652 14.66 44.1718 15.1467 44.5852 15.76V15.8C44.4785 16.1867 44.2852 16.38 44.0052 16.38C43.1785 16.0333 42.7652 15.3 42.7652 14.18V13.92L42.7052 13.88L42.7652 13.8V13.76L42.8252 11C42.8252 10.6133 42.6585 10.42 42.3252 10.42H42.0852C41.4185 10.6867 41.0852 12.1467 41.0852 14.8C41.0852 15.72 40.8518 16.18 40.3852 16.18C40.0252 16.18 39.8385 15.9533 39.8252 15.5V13.5C39.8252 10.9133 40.0518 9.62 40.5052 9.62L40.7052 9.56L41.1252 9.62C41.4852 9.38 41.8652 9.26 42.2652 9.26ZM58.8111 4.16H59.0111C59.3844 4.16 59.5978 4.38 59.6511 4.82C59.6511 5.20667 59.1244 5.4 58.0711 5.4C56.3778 6.04 55.2378 6.97333 54.6511 8.2L54.5111 8.78V8.9C54.5111 9.48667 54.9044 9.78 55.6911 9.78L57.8911 9.66C59.3711 9.66 60.3711 10.38 60.8911 11.82L61.0111 12.52C61.0111 13.9067 59.8911 15.1733 57.6511 16.32C56.9844 16.5067 56.3978 16.6333 55.8911 16.7C54.5311 16.7 53.5711 15.9333 53.0111 14.4C52.8511 13.88 52.7711 13.3533 52.7711 12.82C52.7711 12.66 52.8978 12.4933 53.1511 12.32H53.3911C53.8044 12.32 54.0111 12.8467 54.0111 13.9C54.3578 14.94 54.9044 15.46 55.6511 15.46H56.1911C57.2711 15.46 58.3378 14.8333 59.3911 13.58C59.6711 13.18 59.8111 12.7467 59.8111 12.28C59.8111 11.6267 59.2978 11.1667 58.2711 10.9H58.1911L55.5711 10.96C54.1178 10.7867 53.3911 10.1867 53.3911 9.16L53.3111 8.9C53.3111 7.52667 54.3378 6.19333 56.3911 4.9C57.2844 4.40667 58.0911 4.16 58.8111 4.16ZM62.0927 5.58C62.5993 5.68667 62.8527 5.91333 62.8527 6.26C62.7193 6.63333 62.506 6.82 62.2127 6.82C61.7193 6.72667 61.4727 6.48 61.4727 6.08C61.606 5.74667 61.8127 5.58 62.0927 5.58ZM62.8527 8.38C63.066 8.38 63.246 8.57333 63.3927 8.96L63.2127 10.38V11.32C63.2127 12.4133 63.3993 13.8467 63.7727 15.62C63.6393 15.8733 63.4127 16 63.0927 16C62.546 16 62.186 14.4 62.0127 11.2V10.5C62.0127 9.08667 62.2927 8.38 62.8527 8.38ZM65.9419 4.98C66.3152 5.11333 66.5019 5.32 66.5019 5.6L66.7019 13.22V15.68C66.7019 16.1333 66.5085 16.36 66.1219 16.36H65.8619C65.6219 16.2 65.5019 16.0133 65.5019 15.8V13.48L65.3219 5.56C65.3219 5.22667 65.5285 5.03333 65.9419 4.98ZM68.4417 9.26C68.7484 9.26 69.0817 9.99333 69.4417 11.46C69.9484 12.6333 70.2351 13.2533 70.3017 13.32C70.3684 13.32 70.6151 12.6533 71.0417 11.32C71.4684 9.98667 71.8751 9.32 72.2617 9.32C72.6217 9.45333 72.8017 9.66667 72.8017 9.96C71.6951 12.8133 71.1417 14.7 71.1417 15.62L70.7617 16H70.3817C69.9017 15.6533 69.0884 13.82 67.9417 10.5L67.7617 9.76C67.8551 9.42667 68.0817 9.26 68.4417 9.26ZM77.3895 8.28C77.9762 8.28 78.2695 8.51333 78.2695 8.98L78.0895 9.36L77.9695 13.02C77.9695 14.6733 78.3029 15.7 78.9695 16.1L79.0095 16.4C78.9695 16.7867 78.7895 16.98 78.4695 16.98H78.3495C77.3495 16.3 76.8495 15.26 76.8495 13.86H76.7095C76.1762 15.3533 75.5295 16.1 74.7695 16.1C74.0629 15.9 73.7095 15.3733 73.7095 14.52C73.7095 12.64 74.4629 10.7667 75.9695 8.9C76.4762 8.48667 76.9495 8.28 77.3895 8.28ZM74.9695 13.72L74.8895 14.28V14.66H75.0895C76.0895 12.1667 76.5895 10.6467 76.5895 10.1H76.5095C75.7362 10.9667 75.2229 12.1733 74.9695 13.72Z" fill="white"/>
</svg>
